<mxfile host="app.diagrams.net" modified="2023-05-22T18:59:23.126Z" agent="Mozilla/5.0 (Windows NT 10.0; Win64; x64) AppleWebKit/537.36 (KHTML, like Gecko) Chrome/113.0.0.0 Safari/537.36" etag="4oItSeAVoDCA1Rhw_c9M" version="21.3.2" type="device">
  <diagram name="Страница 1" id="B1p57pyMfsiO546v81Oy">
    <mxGraphModel dx="1050" dy="1742" grid="1" gridSize="10" guides="1" tooltips="1" connect="1" arrows="1" fold="1" page="1" pageScale="1" pageWidth="827" pageHeight="1169" math="0" shadow="0">
      <root>
        <mxCell id="0" />
        <mxCell id="1" parent="0" />
        <mxCell id="g0tfe9_FDxhYO6qAq1aS-2" value="&lt;font style=&quot;font-size: 14px;&quot;&gt;Модели деревьев поведения&lt;/font&gt;" style="shape=cylinder3;whiteSpace=wrap;html=1;boundedLbl=1;backgroundOutline=1;size=15;" vertex="1" parent="1">
          <mxGeometry x="369" y="320" width="90" height="80" as="geometry" />
        </mxCell>
        <mxCell id="g0tfe9_FDxhYO6qAq1aS-3" value="" style="endArrow=none;dashed=1;html=1;rounded=0;" edge="1" parent="1">
          <mxGeometry width="50" height="50" relative="1" as="geometry">
            <mxPoint x="80" y="240" as="sourcePoint" />
            <mxPoint x="600" y="240" as="targetPoint" />
          </mxGeometry>
        </mxCell>
        <mxCell id="g0tfe9_FDxhYO6qAq1aS-4" value="&lt;font style=&quot;font-size: 14px;&quot;&gt;Уровень &lt;br&gt;хранения и &lt;br&gt;передачи &lt;br&gt;данных&lt;/font&gt;" style="text;html=1;align=center;verticalAlign=middle;resizable=0;points=[];autosize=1;strokeColor=none;fillColor=none;" vertex="1" parent="1">
          <mxGeometry x="95" y="260" width="100" height="80" as="geometry" />
        </mxCell>
        <mxCell id="g0tfe9_FDxhYO6qAq1aS-5" value="&lt;font style=&quot;font-size: 14px;&quot;&gt;Загрузчик деревьев поведения&lt;/font&gt;" style="rounded=1;whiteSpace=wrap;html=1;" vertex="1" parent="1">
          <mxGeometry x="329" y="260" width="170" height="40" as="geometry" />
        </mxCell>
        <mxCell id="g0tfe9_FDxhYO6qAq1aS-6" value="" style="endArrow=classic;startArrow=classic;html=1;rounded=0;entryX=0.5;entryY=1;entryDx=0;entryDy=0;exitX=0.5;exitY=0;exitDx=0;exitDy=0;exitPerimeter=0;" edge="1" parent="1" source="g0tfe9_FDxhYO6qAq1aS-2" target="g0tfe9_FDxhYO6qAq1aS-5">
          <mxGeometry width="50" height="50" relative="1" as="geometry">
            <mxPoint x="390" y="310" as="sourcePoint" />
            <mxPoint x="440" y="260" as="targetPoint" />
          </mxGeometry>
        </mxCell>
        <mxCell id="g0tfe9_FDxhYO6qAq1aS-7" value="&lt;font style=&quot;font-size: 14px;&quot;&gt;Деревья поведения&lt;/font&gt;" style="rounded=1;whiteSpace=wrap;html=1;" vertex="1" parent="1">
          <mxGeometry x="220" y="180" width="170" height="40" as="geometry" />
        </mxCell>
        <mxCell id="g0tfe9_FDxhYO6qAq1aS-8" value="" style="endArrow=classic;startArrow=classic;html=1;rounded=0;exitX=0.5;exitY=0;exitDx=0;exitDy=0;entryX=0.5;entryY=1;entryDx=0;entryDy=0;" edge="1" parent="1" source="g0tfe9_FDxhYO6qAq1aS-5" target="g0tfe9_FDxhYO6qAq1aS-7">
          <mxGeometry width="50" height="50" relative="1" as="geometry">
            <mxPoint x="390" y="210" as="sourcePoint" />
            <mxPoint x="440" y="160" as="targetPoint" />
          </mxGeometry>
        </mxCell>
        <mxCell id="g0tfe9_FDxhYO6qAq1aS-9" value="&lt;font style=&quot;font-size: 14px;&quot;&gt;Доска объявлений&lt;/font&gt;" style="rounded=1;whiteSpace=wrap;html=1;" vertex="1" parent="1">
          <mxGeometry x="425.5" y="180" width="131" height="40" as="geometry" />
        </mxCell>
        <mxCell id="g0tfe9_FDxhYO6qAq1aS-13" value="" style="endArrow=classic;startArrow=classic;html=1;rounded=0;entryX=0;entryY=0.5;entryDx=0;entryDy=0;exitX=1;exitY=0.5;exitDx=0;exitDy=0;" edge="1" parent="1" source="g0tfe9_FDxhYO6qAq1aS-7" target="g0tfe9_FDxhYO6qAq1aS-9">
          <mxGeometry width="50" height="50" relative="1" as="geometry">
            <mxPoint x="314.5" y="100" as="sourcePoint" />
            <mxPoint x="440" y="160" as="targetPoint" />
          </mxGeometry>
        </mxCell>
        <mxCell id="g0tfe9_FDxhYO6qAq1aS-14" value="&lt;font style=&quot;font-size: 14px;&quot;&gt;Обработчики действий&lt;/font&gt;" style="rounded=1;whiteSpace=wrap;html=1;" vertex="1" parent="1">
          <mxGeometry x="230" y="69" width="150" height="40" as="geometry" />
        </mxCell>
        <mxCell id="g0tfe9_FDxhYO6qAq1aS-15" value="" style="endArrow=classic;startArrow=classic;html=1;rounded=0;entryX=0.5;entryY=1;entryDx=0;entryDy=0;exitX=0.5;exitY=0;exitDx=0;exitDy=0;" edge="1" parent="1" source="g0tfe9_FDxhYO6qAq1aS-7" target="g0tfe9_FDxhYO6qAq1aS-14">
          <mxGeometry width="50" height="50" relative="1" as="geometry">
            <mxPoint x="330" y="140" as="sourcePoint" />
            <mxPoint x="440" y="160" as="targetPoint" />
          </mxGeometry>
        </mxCell>
        <mxCell id="g0tfe9_FDxhYO6qAq1aS-16" value="" style="endArrow=none;dashed=1;html=1;rounded=0;" edge="1" parent="1">
          <mxGeometry width="50" height="50" relative="1" as="geometry">
            <mxPoint x="80" y="129" as="sourcePoint" />
            <mxPoint x="600" y="129" as="targetPoint" />
          </mxGeometry>
        </mxCell>
        <mxCell id="g0tfe9_FDxhYO6qAq1aS-17" value="&lt;span style=&quot;font-size: 14px;&quot;&gt;Уровень &lt;br&gt;логики&lt;br&gt;поведения&lt;br&gt;&lt;/span&gt;" style="text;html=1;align=center;verticalAlign=middle;resizable=0;points=[];autosize=1;strokeColor=none;fillColor=none;" vertex="1" parent="1">
          <mxGeometry x="100" y="150" width="90" height="60" as="geometry" />
        </mxCell>
        <mxCell id="g0tfe9_FDxhYO6qAq1aS-18" value="&lt;span style=&quot;font-size: 14px;&quot;&gt;Уровень&amp;nbsp;обработки&lt;br&gt;действий и &lt;br&gt;игровых событий&lt;br&gt;&lt;/span&gt;" style="text;html=1;align=center;verticalAlign=middle;resizable=0;points=[];autosize=1;strokeColor=none;fillColor=none;" vertex="1" parent="1">
          <mxGeometry x="70" y="59" width="150" height="60" as="geometry" />
        </mxCell>
        <mxCell id="g0tfe9_FDxhYO6qAq1aS-20" value="&lt;font style=&quot;font-size: 14px;&quot;&gt;Обработчики событий&lt;/font&gt;" style="rounded=1;whiteSpace=wrap;html=1;" vertex="1" parent="1">
          <mxGeometry x="421" y="69" width="140" height="40" as="geometry" />
        </mxCell>
        <mxCell id="g0tfe9_FDxhYO6qAq1aS-23" value="" style="endArrow=classic;startArrow=classic;html=1;rounded=0;exitX=0.5;exitY=1;exitDx=0;exitDy=0;entryX=0.5;entryY=0;entryDx=0;entryDy=0;" edge="1" parent="1" source="g0tfe9_FDxhYO6qAq1aS-20" target="g0tfe9_FDxhYO6qAq1aS-9">
          <mxGeometry width="50" height="50" relative="1" as="geometry">
            <mxPoint x="390" y="180" as="sourcePoint" />
            <mxPoint x="440" y="130" as="targetPoint" />
          </mxGeometry>
        </mxCell>
        <mxCell id="g0tfe9_FDxhYO6qAq1aS-25" value="&lt;font style=&quot;font-size: 14px;&quot;&gt;BW API&lt;/font&gt;" style="rounded=1;whiteSpace=wrap;html=1;" vertex="1" parent="1">
          <mxGeometry x="369" y="-1" width="70" height="40" as="geometry" />
        </mxCell>
        <mxCell id="g0tfe9_FDxhYO6qAq1aS-26" value="" style="endArrow=none;dashed=1;html=1;rounded=0;" edge="1" parent="1">
          <mxGeometry width="50" height="50" relative="1" as="geometry">
            <mxPoint x="80" y="49" as="sourcePoint" />
            <mxPoint x="600" y="49" as="targetPoint" />
          </mxGeometry>
        </mxCell>
        <mxCell id="g0tfe9_FDxhYO6qAq1aS-27" value="" style="endArrow=classic;startArrow=classic;html=1;rounded=0;entryX=0.5;entryY=1;entryDx=0;entryDy=0;exitX=0.5;exitY=0;exitDx=0;exitDy=0;" edge="1" parent="1" source="g0tfe9_FDxhYO6qAq1aS-20" target="g0tfe9_FDxhYO6qAq1aS-25">
          <mxGeometry width="50" height="50" relative="1" as="geometry">
            <mxPoint x="390" y="139" as="sourcePoint" />
            <mxPoint x="440" y="89" as="targetPoint" />
          </mxGeometry>
        </mxCell>
        <mxCell id="g0tfe9_FDxhYO6qAq1aS-28" value="" style="endArrow=classic;startArrow=classic;html=1;rounded=0;exitX=0.5;exitY=0;exitDx=0;exitDy=0;entryX=0.5;entryY=1;entryDx=0;entryDy=0;" edge="1" parent="1" source="g0tfe9_FDxhYO6qAq1aS-14" target="g0tfe9_FDxhYO6qAq1aS-25">
          <mxGeometry width="50" height="50" relative="1" as="geometry">
            <mxPoint x="390" y="139" as="sourcePoint" />
            <mxPoint x="440" y="89" as="targetPoint" />
          </mxGeometry>
        </mxCell>
        <mxCell id="g0tfe9_FDxhYO6qAq1aS-29" value="&lt;span style=&quot;font-size: 14px;&quot;&gt;Уровень &lt;br&gt;взаимодействия &lt;br&gt;с игрой&lt;br&gt;&lt;/span&gt;" style="text;html=1;align=center;verticalAlign=middle;resizable=0;points=[];autosize=1;strokeColor=none;fillColor=none;" vertex="1" parent="1">
          <mxGeometry x="80" y="-21" width="130" height="60" as="geometry" />
        </mxCell>
      </root>
    </mxGraphModel>
  </diagram>
</mxfile>
